<svg width="456" height="456" viewBox="0 0 456 456" fill="none" xmlns="http://www.w3.org/2000/svg">
<rect width="456" height="456" fill="#512BD4"/>
<g transform="translate(-32.162 0)">
<path d="M81.2738 291.333C78.0496 291.333 75.309 290.259 73.052 288.11C70.795 285.906 69.6665 283.289 69.6665 280.259C69.6665 277.173 70.795 274.529 73.052 272.325C75.309 270.121 78.0496 269.019 81.2738 269.019C84.5518 269.019 87.3193 270.121 89.5763 272.325C91.887 274.529 93.0424 277.173 93.0424 280.259C93.0424 283.289 91.887 285.906 89.5763 288.11C87.3193 290.259 84.5518 291.333 81.2738 291.333Z" fill="white"/>
<path d="M198.35584537815126 208.67913865546217Q197.0279462184874 203.5335294117647 194.70412268907563 199.21785714285716Q192.38029915966388 194.90218487394958 188.72857647058822 191.7484243697479Q185.0768537815126 188.5946638655462 180.1802256302521 186.85179621848738Q175.2835974789916 185.10892857142858 168.81008907563026 185.10892857142858Q159.34880756302522 185.10892857142858 152.46033067226892 188.92663865546217Q145.5718537815126 192.7443487394958 141.25618151260505 199.13486344537813Q136.94050924369748 205.5253781512605 134.8656668067227 213.65876050420167Q132.7908243697479 221.79214285714284 132.7908243697479 230.2575Q132.7908243697479 238.72285714285715 134.8656668067227 246.85623949579832Q136.94050924369748 254.9896218487395 141.25618151260505 261.3801365546218Q145.5718537815126 267.77065126050417 152.46033067226892 271.5883613445378Q159.34880756302522 275.4060714285714 168.81008907563026 275.4060714285714Q175.78155966386555 275.4060714285714 181.093156302521 272.9992542016806Q186.40475294117647 270.5924369747899 190.2224630252101 266.3597584033613Q194.0401731092437 262.12707983193275 196.19800924369747 256.4835084033613Q198.35584537815126 250.8399369747899 199.0197949579832 244.36642857142857H219.27025714285713Q218.6063075630252 254.9896218487395 214.7056037815126 263.7869537815126Q210.80489999999998 272.5842857142857 204.16540420168064 278.9748004201681Q197.52590840336134 285.3653151260504 188.56258907563023 288.85105042016806Q179.59926974789914 292.3367857142857 168.81008907563026 292.3367857142857Q155.5310974789916 292.3367857142857 144.99089789915968 287.4401575630252Q134.45069831932773 282.54352941176467 127.14725294117648 274.07817226890757Q119.84380756302521 265.6128151260504 115.9431037815126 254.32567226890757Q112.0424 243.0385294117647 112.0424 230.2575Q112.0424 217.64245798319325 115.9431037815126 206.3553151260504Q119.84380756302521 195.06817226890757 127.14725294117648 186.60281512605042Q134.45069831932773 178.13745798319326 144.99089789915968 173.15783613445376Q155.5310974789916 168.1782142857143 168.81008907563026 168.1782142857143Q178.76933277310923 168.1782142857143 187.56666470588235 170.91700630252103Q196.36399663865546 173.65579831932774 203.08648613445376 178.8844012605042Q209.8089756302521 184.11300420168067 213.95866050420167 191.5824369747899Q218.10834537815126 199.05186974789916 219.10426974789914 208.67913865546217Z" fill="white"/>
<path d="M238.19282016806721 171.0H287.3250890756302Q300.93605546218487 171.0 310.89529915966386 175.64764705882354Q320.85454285714286 180.29529411764707 327.1620638655462 188.34568277310925Q333.46958487394954 196.39607142857142 336.54035168067225 207.18525210084033Q339.61111848739495 217.97443277310924 339.61111848739495 230.2575Q339.61111848739495 242.54056722689074 336.54035168067225 253.32974789915966Q333.46958487394954 264.11892857142857 327.1620638655462 272.1693172268907Q320.85454285714286 280.2197058823529 310.89529915966386 284.8673529411765Q300.93605546218487 289.515 287.3250890756302 289.515H238.19282016806721ZM258.9412445378151 272.5842857142857H279.35769411764704Q291.4747739495798 272.5842857142857 299.19318781512607 269.34753151260503Q306.9116016806723 266.11077731092433 311.3102676470588 260.38421218487395Q315.70893361344537 254.65764705882353 317.2858138655462 246.9392331932773Q318.86269411764704 239.22081932773108 318.86269411764704 230.2575Q318.86269411764704 221.2941806722689 317.2858138655462 213.5757668067227Q315.70893361344537 205.8573529411765 311.3102676470588 200.13078781512604Q306.9116016806723 194.40422268907562 299.19318781512607 191.16746848739496Q291.4747739495798 187.9307142857143 279.35769411764704 187.9307142857143H258.9412445378151Z" fill="white"/>
<path d="M358.0357193277311 171.0H410.3217487394958Q422.9367907563025 171.0 430.90418571428575 174.65172268907563Q438.8715806722689 178.30344537815125 443.18725294117644 183.7810294117647Q447.502925210084 189.25861344537816 449.0798054621848 195.7321218487395Q450.6566857142857 202.20563025210083 450.6566857142857 207.68321428571429Q450.6566857142857 213.16079831932774 449.0798054621848 219.55131302521008Q447.502925210084 225.94182773109242 443.18725294117644 231.41941176470587Q438.8715806722689 236.89699579831932 430.90418571428575 240.46572478991595Q422.9367907563025 244.03445378151258 410.3217487394958 244.03445378151258H378.78414369747895V289.515H358.0357193277311ZM378.78414369747895 227.10373949579832H409.15983697478987Q412.64557226890753 227.10373949579832 416.2972949579831 226.1078151260504Q419.9490176470588 225.1118907563025 423.0197844537815 222.87106092436974Q426.0905512605042 220.630231092437 427.999406302521 216.89551470588236Q429.9082613445378 213.16079831932774 429.9082613445378 207.5172268907563Q429.9082613445378 201.7076680672269 428.24838739495794 197.88995798319328Q426.5885134453781 194.07224789915966 423.7667277310924 191.83141806722688Q420.9449420168067 189.59058823529412 417.2932193277311 188.7606512605042Q413.64149663865544 187.9307142857143 409.49181176470586 187.9307142857143H378.78414369747895Z" fill="white"/>
</g>
</svg>
